STARTFONT 2.1
COMMENT
COMMENT Converted from OpenType font "Kanit-Medium.ttf" by "otf2bdf 3.0".
COMMENT
FONT -FreeType-Kanit Medium-Medium-R-Normal--28-200-100-100-P-143-ISO10646-1
SIZE 20 100 100
FONTBOUNDINGBOX 23 24 0 -5
STARTPROPERTIES 19
FOUNDRY "FreeType"
FAMILY_NAME "Kanit Medium"
WEIGHT_NAME "Medium"
SLANT "R"
SETWIDTH_NAME "Normal"
ADD_STYLE_NAME ""
PIXEL_SIZE 28
POINT_SIZE 200
RESOLUTION_X 100
RESOLUTION_Y 100
SPACING "P"
AVERAGE_WIDTH 143
CHARSET_REGISTRY "ISO10646"
CHARSET_ENCODING "1"
FONT_ASCENT 30
FONT_DESCENT 11
COPYRIGHT "Copyright 2020 The Kanit Project Authors (https://github.com/cadsondemak/kanit)"
_OTF_FONTFILE "Kanit-Medium.ttf"
_OTF_PSNAME "Kanit-Medium"
ENDPROPERTIES
CHARS 38
STARTCHAR 0020
ENCODING 32
SWIDTH 216 0
DWIDTH 6 0
BBX 0 0 0 0
BITMAP
ENDCHAR
STARTCHAR 0030
ENCODING 48
SWIDTH 648 0
DWIDTH 18 0
BBX 16 19 1 0
BITMAP
07F0
1FF8
3FFC
7E7E
781F
F80F
F00F
F00F
F00F
F00F
F00F
F00F
F00F
F80F
781F
7E7E
3FFC
1FF8
07F0
ENDCHAR
STARTCHAR 0031
ENCODING 49
SWIDTH 324 0
DWIDTH 9 0
BBX 7 19 1 0
BITMAP
0E
FE
FE
FE
1E
1E
1E
1E
1E
1E
1E
1E
1E
1E
1E
1E
1E
1E
1E
ENDCHAR
STARTCHAR 0032
ENCODING 50
SWIDTH 504 0
DWIDTH 14 0
BBX 12 19 1 0
BITMAP
3F80
7FC0
7FE0
63F0
00F0
00F0
00F0
00F0
00F0
01E0
03C0
0F80
1F00
3E00
3C00
7800
FFF0
FFF0
FFF0
ENDCHAR
STARTCHAR 0033
ENCODING 51
SWIDTH 540 0
DWIDTH 15 0
BBX 13 19 1 0
BITMAP
3F80
FFE0
FFE0
E1F0
00F0
00F0
00F0
01F0
1FE0
1FC0
1FF0
00F0
0078
0078
00F8
E1F0
FFF0
FFE0
7F80
ENDCHAR
STARTCHAR 0034
ENCODING 52
SWIDTH 540 0
DWIDTH 15 0
BBX 15 19 0 0
BITMAP
0078
0078
00F8
01F8
03F8
03B8
0738
0F38
1E38
1C38
3838
7038
FFFE
FFFE
FFFE
0078
0078
0078
0078
ENDCHAR
STARTCHAR 0035
ENCODING 53
SWIDTH 540 0
DWIDTH 15 0
BBX 12 19 1 0
BITMAP
FFE0
FFE0
FFE0
F000
F000
F000
F000
FF80
FFE0
FFF0
01F0
00F0
0070
0070
00F0
E1F0
FFE0
FFC0
7F80
ENDCHAR
STARTCHAR 0036
ENCODING 54
SWIDTH 576 0
DWIDTH 16 0
BBX 14 19 1 0
BITMAP
07F0
1FF0
3FF0
7E10
7000
F000
F7E0
FFF0
FFF8
FC7C
F03C
F01C
F01C
F01C
F03C
7C7C
7FF8
3FF0
0FC0
ENDCHAR
STARTCHAR 0037
ENCODING 55
SWIDTH 504 0
DWIDTH 14 0
BBX 12 19 1 0
BITMAP
FFF0
FFF0
FFF0
00F0
00E0
01E0
01E0
03C0
03C0
0780
0780
0780
0F00
0F00
1E00
1E00
1E00
3C00
3C00
ENDCHAR
STARTCHAR 0038
ENCODING 56
SWIDTH 612 0
DWIDTH 17 0
BBX 15 19 1 0
BITMAP
0FE0
3FF8
7FF8
7C7C
703C
701C
703C
783C
3FF8
3FF0
7FF8
F03C
F01E
F01E
F01E
FC7C
7FFC
3FF8
0FE0
ENDCHAR
STARTCHAR 0039
ENCODING 57
SWIDTH 576 0
DWIDTH 16 0
BBX 14 19 1 0
BITMAP
0FC0
3FF0
7FF8
7CF8
F03C
E03C
E01C
F01C
F87C
7FFC
7FFC
1FDC
001C
003C
003C
31F8
3FF0
3FE0
3F80
ENDCHAR
STARTCHAR 003A
ENCODING 58
SWIDTH 180 0
DWIDTH 5 0
BBX 3 12 1 1
BITMAP
E0
E0
E0
00
00
00
00
00
00
E0
E0
E0
ENDCHAR
STARTCHAR 0041
ENCODING 65
SWIDTH 720 0
DWIDTH 20 0
BBX 18 19 1 0
BITMAP
01E000
03F000
03F000
03F000
07F800
073800
073800
0F3C00
0E1C00
1E1C00
1E1E00
1C0E00
3FFF00
3FFF00
3FFF00
780780
780780
780780
F003C0
ENDCHAR
STARTCHAR 0042
ENCODING 66
SWIDTH 648 0
DWIDTH 18 0
BBX 15 19 2 0
BITMAP
FFE0
FFF8
FFF8
E07C
E03C
E01C
E03C
E03C
FFF8
FFF0
FFFC
E07C
E01E
E01E
E01E
E03E
FFFC
FFF8
FFF0
ENDCHAR
STARTCHAR 0043
ENCODING 67
SWIDTH 612 0
DWIDTH 17 0
BBX 15 19 1 0
BITMAP
03F8
0FFE
3FFE
3F1E
7C00
7800
F000
F000
F000
F000
F000
F000
F000
7800
7C00
3F0E
3FFE
0FFE
03FC
ENDCHAR
STARTCHAR 0044
ENCODING 68
SWIDTH 648 0
DWIDTH 18 0
BBX 15 19 2 0
BITMAP
FFC0
FFF0
FFFC
E0FC
E03E
E01E
E01E
E01E
E01E
E01E
E01E
E01E
E01E
E01E
E03E
E0FC
FFFC
FFF0
FFE0
ENDCHAR
STARTCHAR 0045
ENCODING 69
SWIDTH 576 0
DWIDTH 16 0
BBX 13 19 2 0
BITMAP
FFF8
FFF8
FFF8
E000
E000
E000
E000
E000
FFF0
FFF0
FFF0
E000
E000
E000
E000
E000
FFF8
FFF8
FFF8
ENDCHAR
STARTCHAR 0046
ENCODING 70
SWIDTH 540 0
DWIDTH 15 0
BBX 12 19 2 0
BITMAP
FFF0
FFF0
FFF0
E000
E000
E000
E000
E000
FFE0
FFE0
FFE0
E000
E000
E000
E000
E000
E000
E000
E000
ENDCHAR
STARTCHAR 0047
ENCODING 71
SWIDTH 648 0
DWIDTH 18 0
BBX 16 19 1 0
BITMAP
03FC
0FFE
1FFE
3F8E
7C00
7800
F000
F000
F000
F07F
F07F
F007
F007
7807
7C07
7F1F
3FFF
1FFF
03F8
ENDCHAR
STARTCHAR 0048
ENCODING 72
SWIDTH 684 0
DWIDTH 19 0
BBX 15 19 2 0
BITMAP
E01E
E01E
E01E
E01E
E01E
E01E
E01E
E01E
FFFE
FFFE
FFFE
E01E
E01E
E01E
E01E
E01E
E01E
E01E
E01E
ENDCHAR
STARTCHAR 0049
ENCODING 73
SWIDTH 252 0
DWIDTH 7 0
BBX 3 19 2 0
BITMAP
E0
E0
E0
E0
E0
E0
E0
E0
E0
E0
E0
E0
E0
E0
E0
E0
E0
E0
E0
ENDCHAR
STARTCHAR 004A
ENCODING 74
SWIDTH 432 0
DWIDTH 12 0
BBX 11 19 0 0
BITMAP
01E0
01E0
01E0
01E0
01E0
01E0
01E0
01E0
01E0
01E0
01E0
01E0
01E0
01E0
01E0
C7C0
FFC0
FF80
7F00
ENDCHAR
STARTCHAR 004B
ENCODING 75
SWIDTH 648 0
DWIDTH 18 0
BBX 15 19 2 0
BITMAP
E03E
E078
E0F8
E1F0
E3E0
E3C0
E780
EF00
FF80
FF80
FFC0
F9C0
F1E0
E0F0
E0F0
E078
E078
E03C
E01E
ENDCHAR
STARTCHAR 004C
ENCODING 76
SWIDTH 540 0
DWIDTH 15 0
BBX 12 19 2 0
BITMAP
E000
E000
E000
E000
E000
E000
E000
E000
E000
E000
E000
E000
E000
E000
E000
E000
FFF0
FFF0
FFF0
ENDCHAR
STARTCHAR 004D
ENCODING 77
SWIDTH 756 0
DWIDTH 21 0
BBX 18 19 2 0
BITMAP
F003C0
F007C0
F807C0
F80FC0
F80FC0
FC1FC0
FC1FC0
EE1FC0
EE3BC0
E73BC0
E773C0
E3F3C0
E3E3C0
E1E3C0
E1C3C0
E1C3C0
E003C0
E003C0
E003C0
ENDCHAR
STARTCHAR 004E
ENCODING 78
SWIDTH 684 0
DWIDTH 19 0
BBX 15 19 2 0
BITMAP
E01E
F01E
F81E
F81E
FC1E
FE1E
FE1E
EF1E
E79E
E79E
E3DE
E1FE
E0FE
E0FE
E07E
E03E
E03E
E01E
E00E
ENDCHAR
STARTCHAR 004F
ENCODING 79
SWIDTH 720 0
DWIDTH 20 0
BBX 18 19 1 0
BITMAP
07F000
1FFC00
3FFF00
7F3F00
780F80
F80780
F00780
F00380
F003C0
F003C0
F003C0
F00380
F00780
780780
780F80
7F3F00
3FFF00
1FFC00
07F000
ENDCHAR
STARTCHAR 0050
ENCODING 80
SWIDTH 612 0
DWIDTH 17 0
BBX 14 19 2 0
BITMAP
FFE0
FFF0
FFF8
E0FC
E03C
E03C
E03C
E03C
E03C
E07C
FFF8
FFF8
FFE0
E000
E000
E000
E000
E000
E000
ENDCHAR
STARTCHAR 0051
ENCODING 81
SWIDTH 720 0
DWIDTH 20 0
BBX 18 24 1 -5
BITMAP
07F000
1FFC00
3FFF00
7F3F00
780F80
780780
F00780
F00380
F003C0
F003C0
F003C0
F00380
F00780
F80780
780F80
7E1F00
3FFF00
1FFE00
07F800
01C000
01E000
01FC00
00FC00
007C00
ENDCHAR
STARTCHAR 0052
ENCODING 82
SWIDTH 612 0
DWIDTH 17 0
BBX 14 19 2 0
BITMAP
FFE0
FFF8
FFF8
E07C
E03C
E03C
E03C
E03C
E03C
E07C
FFF8
FFF0
FFE0
E0F0
E0F0
E078
E078
E038
E03C
ENDCHAR
STARTCHAR 0053
ENCODING 83
SWIDTH 576 0
DWIDTH 16 0
BBX 14 19 1 0
BITMAP
0FE0
3FF0
7FF0
FC70
F000
F000
F000
FC00
7F80
3FE0
07F8
00F8
0078
003C
0078
F1F8
FFF8
FFF0
3FC0
ENDCHAR
STARTCHAR 0054
ENCODING 84
SWIDTH 576 0
DWIDTH 16 0
BBX 15 19 0 0
BITMAP
FFFE
FFFE
FFFE
03C0
03C0
03C0
03C0
03C0
03C0
03C0
03C0
03C0
03C0
03C0
03C0
03C0
03C0
03C0
03C0
ENDCHAR
STARTCHAR 0055
ENCODING 85
SWIDTH 684 0
DWIDTH 19 0
BBX 17 19 1 0
BITMAP
F00780
F00780
F00780
F00780
F00780
F00780
F00780
F00780
F00780
F00780
F00780
F00780
F00780
780F00
780F00
7E3F00
3FFE00
1FFC00
07F000
ENDCHAR
STARTCHAR 0056
ENCODING 86
SWIDTH 720 0
DWIDTH 20 0
BBX 18 19 1 0
BITMAP
F003C0
700780
780780
780780
3C0F00
3C0F00
3C0F00
1E1E00
1E1E00
1E1E00
0F3C00
0F3C00
073800
07F800
07F800
03F000
03F000
03F000
01E000
ENDCHAR
STARTCHAR 0057
ENCODING 87
SWIDTH 900 0
DWIDTH 25 0
BBX 22 19 1 0
BITMAP
F0781C
F0783C
70783C
78783C
787C38
787C38
78FC78
38EE78
3CEE78
3DEE70
3DCEF0
1DC7F0
1DC7F0
1F87F0
1F87E0
1F83E0
0F83E0
0F03E0
0F01C0
ENDCHAR
STARTCHAR 0058
ENCODING 88
SWIDTH 720 0
DWIDTH 20 0
BBX 18 19 1 0
BITMAP
F80780
7C0F00
3C1F00
1E1E00
1F3C00
0F7C00
07F800
07F000
03F000
01E000
03F000
07F000
0FF800
0F7C00
1F3E00
3E1E00
3C1F00
7C0F80
F807C0
ENDCHAR
STARTCHAR 0059
ENCODING 89
SWIDTH 684 0
DWIDTH 19 0
BBX 17 19 1 0
BITMAP
F00780
780F00
780E00
3C1E00
3C1C00
1E3C00
0E7800
0F7800
07F000
07F000
03E000
03E000
03C000
03C000
03C000
03C000
03C000
03C000
03C000
ENDCHAR
STARTCHAR 005A
ENCODING 90
SWIDTH 576 0
DWIDTH 16 0
BBX 14 19 1 0
BITMAP
FFFC
FFFC
FFFC
0078
00F8
00F0
01E0
03E0
03C0
0780
0F80
0F00
1E00
3E00
3C00
7800
FFFC
FFFC
FFFC
ENDCHAR
ENDFONT
